HIERARCHY
ROOT Hips
{
  OFFSET -1.006 21.112 -266.270
  CHANNELS 6 Xposition Yposition Zposition Zrotation Xrotation Yrotation
  JOINT LeftUpLeg
  {
    OFFSET 7.849 -7.202 3.177
    CHANNELS 6 Xposition Yposition Zposition Zrotation Xrotation Yrotation
    JOINT LeftLeg
    {
      OFFSET -0.000 -47.474 0.000
      CHANNELS 6 Xposition Yposition Zposition Zrotation Xrotation Yrotation
      JOINT LeftFoot
      {
        OFFSET -0.000 -41.546 -0.000
        CHANNELS 6 Xposition Yposition Zposition Zrotation Xrotation Yrotation
        End Site
        {
          OFFSET 0.000 -9.445 5.453
        }
      }
    }
  }
  JOINT RightUpLeg
  {
    OFFSET -7.722 -7.084 2.138
    CHANNELS 6 Xposition Yposition Zposition Zrotation Xrotation Yrotation
    JOINT RightLeg
    {
      OFFSET 0.000 -47.382 0.000
      CHANNELS 6 Xposition Yposition Zposition Zrotation Xrotation Yrotation
      JOINT RightFoot
      {
        OFFSET -0.000 -41.157 -0.000
        CHANNELS 6 Xposition Yposition Zposition Zrotation Xrotation Yrotation
        End Site
        {
          OFFSET 0.000 -9.824 5.672
        }
      }
    }
  }
  JOINT Spine
  {
    OFFSET 0.000 5.759 -5.759
    CHANNELS 6 Xposition Yposition Zposition Zrotation Xrotation Yrotation
    JOINT LeftShoulder
    {
      OFFSET -0.000 37.329 0.000
      CHANNELS 6 Xposition Yposition Zposition Zrotation Xrotation Yrotation
      JOINT LeftArm
      {
        OFFSET 22.206 0.000 -0.000
        CHANNELS 6 Xposition Yposition Zposition Zrotation Xrotation Yrotation
        JOINT LeftForeArm
        {
          OFFSET 24.741 0.000 0.000
          CHANNELS 6 Xposition Yposition Zposition Zrotation Xrotation Yrotation
          JOINT LeftHand
          {
            OFFSET 28.035 0.000 -0.000
            CHANNELS 6 Xposition Yposition Zposition Zrotation Xrotation Yrotation
            JOINT LeftHandThumb1
            {
            OFFSET 4.970 -0.620 3.390
            CHANNELS 6 Xposition Yposition Zposition Zrotation Xrotation Yrotation
              JOINT LeftHandThumb2
              {
              OFFSET 2.150 -0.000 0.000
              CHANNELS 6 Xposition Yposition Zposition Zrotation Xrotation Yrotation
                JOINT LeftHandThumb3
                {
                OFFSET 2.200 -0.000 0.000
                CHANNELS 6 Xposition Yposition Zposition Zrotation Xrotation Yrotation
                  JOINT LeftHandThumb4
                  {
                  OFFSET 1.700 -0.000 0.000
                  CHANNELS 6 Xposition Yposition Zposition Zrotation Xrotation Yrotation
                  }
                }
              }
            }
            JOINT LeftHandIndex1
            {
            OFFSET 8.730 0.680 2.070
            CHANNELS 6 Xposition Yposition Zposition Zrotation Xrotation Yrotation
              JOINT LeftHandIndex2
              {
              OFFSET 2.670 -0.000 0.000
              CHANNELS 6 Xposition Yposition Zposition Zrotation Xrotation Yrotation
                JOINT LeftHandIndex3
                {
                OFFSET 2.130 -0.000 0.000
                CHANNELS 6 Xposition Yposition Zposition Zrotation Xrotation Yrotation
                  JOINT LeftHandIndex4
                  {
                  OFFSET 1.800 -0.000 0.000
                  CHANNELS 6 Xposition Yposition Zposition Zrotation Xrotation Yrotation
                  }
                }
              }
            }
            JOINT LeftHandMiddle1
            {
            OFFSET 9.220 0.670 0.550
            CHANNELS 6 Xposition Yposition Zposition Zrotation Xrotation Yrotation
              JOINT LeftHandMiddle2
              {
              OFFSET 2.660 -0.000 0.000
              CHANNELS 6 Xposition Yposition Zposition Zrotation Xrotation Yrotation
                JOINT LeftHandMiddle3
                {
                OFFSET 2.280 -0.000 0.000
                CHANNELS 6 Xposition Yposition Zposition Zrotation Xrotation Yrotation
                  JOINT LeftHandMiddle4
                  {
                  OFFSET 1.500 -0.000 0.000
                  CHANNELS 6 Xposition Yposition Zposition Zrotation Xrotation Yrotation
                  }
                }
              }
            }
            JOINT LeftHandRing1
            {
            OFFSET 9.250 0.670 -1.130
            CHANNELS 6 Xposition Yposition Zposition Zrotation Xrotation Yrotation
              JOINT LeftHandRing2
              {
              OFFSET 2.470 -0.000 0.000
              CHANNELS 6 Xposition Yposition Zposition Zrotation Xrotation Yrotation
                JOINT LeftHandRing3
                {
                OFFSET 2.210 -0.000 0.000
                CHANNELS 6 Xposition Yposition Zposition Zrotation Xrotation Yrotation
                  JOINT LeftHandRing4
                  {
                  OFFSET 1.800 -0.000 0.000
                  CHANNELS 6 Xposition Yposition Zposition Zrotation Xrotation Yrotation
                  }
                }
              }
            }
            JOINT LeftHandPinky1
            {
            OFFSET 9.350 0.660 -2.720
            CHANNELS 6 Xposition Yposition Zposition Zrotation Xrotation Yrotation
              JOINT LeftHandPinky2
              {
              OFFSET 1.630 -0.000 0.000
              CHANNELS 6 Xposition Yposition Zposition Zrotation Xrotation Yrotation
                JOINT LeftHandPinky3
                {
                OFFSET 1.710 -0.000 0.000
                CHANNELS 6 Xposition Yposition Zposition Zrotation Xrotation Yrotation
                  JOINT LeftHandPinky4
                  {
                  OFFSET 1.800 -0.000 0.000
                  CHANNELS 6 Xposition Yposition Zposition Zrotation Xrotation Yrotation
                  }
                }
              }
            }
          }
        }
      }
    }
    JOINT RightShoulder
    {
      OFFSET -0.000 37.329 0.000
      CHANNELS 6 Xposition Yposition Zposition Zrotation Xrotation Yrotation
      JOINT RightArm
      {
        OFFSET -19.299 0.000 -0.000
        CHANNELS 6 Xposition Yposition Zposition Zrotation Xrotation Yrotation
        JOINT RightForeArm
        {
          OFFSET -27.173 0.000 0.000
          CHANNELS 6 Xposition Yposition Zposition Zrotation Xrotation Yrotation
          JOINT RightHand
          {
            OFFSET -25.037 0.000 -0.000
            CHANNELS 6 Xposition Yposition Zposition Zrotation Xrotation Yrotation
            JOINT RightHandThumb1
            {
            OFFSET -4.970 -0.620 3.390
            CHANNELS 6 Xposition Yposition Zposition Zrotation Xrotation Yrotation
              JOINT RightHandThumb2
              {
              OFFSET -2.150 0.000 0.000
              CHANNELS 6 Xposition Yposition Zposition Zrotation Xrotation Yrotation
                JOINT RightHandThumb3
                {
                OFFSET -2.200 0.000 0.000
                CHANNELS 6 Xposition Yposition Zposition Zrotation Xrotation Yrotation
                  JOINT RightHandThumb4
                  {
                  OFFSET -1.700 0.000 0.000
                  CHANNELS 6 Xposition Yposition Zposition Zrotation Xrotation Yrotation
                  }
                }
              }
            }
            JOINT RightHandIndex1
            {
            OFFSET -8.730 0.680 2.070
            CHANNELS 6 Xposition Yposition Zposition Zrotation Xrotation Yrotation
              JOINT RightHandIndex2
              {
              OFFSET -2.670 0.000 0.000
              CHANNELS 6 Xposition Yposition Zposition Zrotation Xrotation Yrotation
                JOINT RightHandIndex3
                {
                OFFSET -2.130 0.000 0.000
                CHANNELS 6 Xposition Yposition Zposition Zrotation Xrotation Yrotation
                  JOINT RightHandIndex4
                  {
                  OFFSET -1.800 0.000 0.000
                  CHANNELS 6 Xposition Yposition Zposition Zrotation Xrotation Yrotation
                  }
                }
              }
            }
            JOINT RightHandMiddle1
            {
            OFFSET -9.220 0.670 0.550
            CHANNELS 6 Xposition Yposition Zposition Zrotation Xrotation Yrotation
              JOINT RightHandMiddle2
              {
              OFFSET -2.660 0.000 0.000
              CHANNELS 6 Xposition Yposition Zposition Zrotation Xrotation Yrotation
                JOINT RightHandMiddle3
                {
                OFFSET -2.280 0.000 0.000
                CHANNELS 6 Xposition Yposition Zposition Zrotation Xrotation Yrotation
                  JOINT RightHandMiddle4
                  {
                  OFFSET -1.500 0.000 0.000
                  CHANNELS 6 Xposition Yposition Zposition Zrotation Xrotation Yrotation
                  }
                }
              }
            }
            JOINT RightHandRing1
            {
            OFFSET -9.250 0.670 -1.130
            CHANNELS 6 Xposition Yposition Zposition Zrotation Xrotation Yrotation
              JOINT RightHandRing2
              {
              OFFSET -2.470 0.000 0.000
              CHANNELS 6 Xposition Yposition Zposition Zrotation Xrotation Yrotation
                JOINT RightHandRing3
                {
                OFFSET -2.210 0.000 0.000
                CHANNELS 6 Xposition Yposition Zposition Zrotation Xrotation Yrotation
                  JOINT RightHandRing4
                  {
                  OFFSET -1.800 0.000 0.000
                  CHANNELS 6 Xposition Yposition Zposition Zrotation Xrotation Yrotation
                  }
                }
              }
            }
            JOINT RightHandPinky1
            {
            OFFSET -9.350 0.660 -2.720
            CHANNELS 6 Xposition Yposition Zposition Zrotation Xrotation Yrotation
              JOINT RightHandPinky2
              {
              OFFSET -1.630 0.000 0.000
              CHANNELS 6 Xposition Yposition Zposition Zrotation Xrotation Yrotation
                JOINT RightHandPinky3
                {
                OFFSET -1.710 0.000 0.000
                CHANNELS 6 Xposition Yposition Zposition Zrotation Xrotation Yrotation
                  JOINT RightHandPinky4
                  {
                  OFFSET -1.800 0.000 0.000
                  CHANNELS 6 Xposition Yposition Zposition Zrotation Xrotation Yrotation
                  }
                }
              }
            }
          }
        }
      }
    }
    JOINT Neck
    {
      OFFSET -0.000 37.329 0.000
      CHANNELS 6 Xposition Yposition Zposition Zrotation Xrotation Yrotation
      JOINT Head
      {
        OFFSET -0.000 17.475 -0.000
        CHANNELS 6 Xposition Yposition Zposition Zrotation Xrotation Yrotation
        End Site
        {
          OFFSET -0.000 0.070 -0.000
        }
      }
    }
  }
}
MOTION
Frames:	5
Frame Time:	0.0333333
-34.266 22.7595 -319.39 1.14862 -1.07362 7.83611 8.08738 -8.0869 1.90771 1.3492 7.06361 -0.684458 -1.49012e-06 -47.0023 7.15256e-05 -4.26192 -1.26544 -0.0942967 7.45058e-06 -41.045 0 5.36355 -15.3698 4.41659 -8.04281 -7.46297 1.83816 -6.04246 4.2986 0.0404375 1.48779e-05 -47.97 -7.15256e-05 4.90611 3.71739 -0.31887 -7.45058e-06 -39.7789 -2.38419e-05 -4.16072 -10.8172 -3.1545 1.49012e-06 6.38398 -6.38404 0.451485 -4.2843 -1.21255 5.21541e-06 37.3278 0 -33.1327 1.28066e-05 -8.0738 22.7729 -5.96046e-06 4.76837e-05 2.63178 -49.209 5.17708 24.0951 0 0 4.21051e-08 -5.12267e-06 -89.0325 24.1492 0 2.98023e-06 7.08843 0.107979 -17.8546 0.0062 0.0497 0.0339 0 0 0 0 0.0215 0 0 0 0 0 0.022 0 0 0 0 0 0.017 0 0 0 0 -0.0068 0.0873 0.0207 0 0 0 0 0.0267 0 0 0 0 0 0.0213 0 0 0 0 0 0.018 0 0 0 0 -0.0067 0.0922 0.0055 0 0 0 0 0.0266 0 0 0 0 0 0.0228 0 0 0 0 0 0.015 0 0 0 0 -0.0067 0.0925 -0.0113 0 0 0 0 0.0247 0 0 0 0 0 0.0221 0 0 0 0 0 0.018 0 0 0 0 -0.0066 0.0935 -0.0272 0 0 0 0 0.0163 0 0 0 0 0 0.0171 0 0 0 0 0 0.018 0 0 0 0 5.21541e-06 37.3278 0 33.9779 -2.82812e-06 9.10769 -20.206 -5.96046e-06 9.53674e-05 35.2607 9.3158 16.6579 -28.3774 -1.19209e-05 0 0.000255142 1.70755e-06 87.6983 -24.6082 1.78814e-05 2.38419e-05 28.0724 -0.0615981 7.46319 -0.0062 0.0497 0.0339 45 0 0 0 0.0215 0 0 -45 0 0 0.022 0 0 -45 0 0 0.017 0 0 0 0 0.0068 0.0873 0.0207 45 0 0 0 0.0267 0 80 0 0 0 0.0213 0 90 0 0 0 0.018 0 0 0 0 0.0067 0.0922 0.0055 45 0 0 0 0.0266 0 80 0 0 0 0.0228 0 90 0 0 0 0.015 0 0 0 0 0.0067 0.0925 -0.0113 45 0 0 0 0.0247 0 80 0 0 0 0.0221 0 90 0 0 0 0.018 0 0 0 0 0.0066 0.0935 -0.0272 45 0 0 0 0.0163 0 80 0 0 0 0.0171 0 90 0 0 0 0.018 0 0 0 0 5.21541e-06 37.3278 0 -2.24484 13.2475 0.514676 -1.35973e-05 20.4133 -2.38419e-05 9.8184e-06 -9.39151e-06 0 
-34.2645 22.7481 -319.357 1.14719 -1.04108 7.74774 8.09065 -8.08806 1.90048 1.37302 7.0278 -0.606413 2.98023e-06 -46.9497 2.38419e-05 -4.34299 -1.198 -0.0909733 5.96046e-06 -41.083 -4.76837e-05 5.38589 -15.5852 4.45124 -8.04038 -7.45927 1.85378 -6.03422 4.25804 0.117138 -1.48895e-05 -47.9695 0 4.87608 3.74027 -0.318855 4.09782e-06 -39.745 -4.76837e-05 -4.13901 -10.7823 -3.13439 -3.72529e-06 6.38741 -6.38733 0.484283 -4.29923 -1.22434 2.98023e-06 37.3278 4.76837e-05 -33.1623 1.45142e-05 -8.14716 22.7863 -1.19209e-05 0 3.08891 -48.9216 5.77814 24.3558 0 -2.38419e-05 0.0133908 -1.70997e-06 -90.0585 24.1505 0 -1.19209e-05 6.29697 0.115949 -17.7876 0.0062 0.0497 0.0339 0 0 0 0 0.0215 0 0 0 0 0 0.022 0 0 0 0 0 0.017 0 0 0 0 -0.0068 0.0873 0.0207 0 0 0 0 0.0267 0 0 0 0 0 0.0213 0 0 0 0 0 0.018 0 0 0 0 -0.0067 0.0922 0.0055 0 0 0 0 0.0266 0 0 0 0 0 0.0228 0 0 0 0 0 0.015 0 0 0 0 -0.0067 0.0925 -0.0113 0 0 0 0 0.0247 0 0 0 0 0 0.0221 0 0 0 0 0 0.018 0 0 0 0 -0.0066 0.0935 -0.0272 0 0 0 0 0.0163 0 0 0 0 0 0.0171 0 0 0 0 0 0.018 0 0 0 0 2.98023e-06 37.3278 4.76837e-05 33.9677 -2.88149e-06 9.20419 -20.1883 0 0 35.4881 9.16774 16.1043 -28.2774 2.38419e-05 -2.38419e-05 -8.68256e-05 1.70755e-05 87.7545 -24.616 8.9407e-06 -2.38419e-05 24.9704 -0.0771761 7.09891 -0.0062 0.0497 0.0339 45 0 0 0 0.0215 0 0 -45 0 0 0.022 0 0 -45 0 0 0.017 0 0 0 0 0.0068 0.0873 0.0207 45 0 0 0 0.0267 0 80 0 0 0 0.0213 0 90 0 0 0 0.018 0 0 0 0 0.0067 0.0922 0.0055 45 0 0 0 0.0266 0 80 0 0 0 0.0228 0 90 0 0 0 0.015 0 0 0 0 0.0067 0.0925 -0.0113 45 0 0 0 0.0247 0 80 0 0 0 0.0221 0 90 0 0 0 0.018 0 0 0 0 0.0066 0.0935 -0.0272 45 0 0 0 0.0163 0 80 0 0 0 0.0171 0 90 0 0 0 0.018 0 0 0 0 2.98023e-06 37.3278 4.76837e-05 -2.53384 13.6649 0.598973 -9.31323e-07 20.4053 4.76837e-05 9.92512e-06 -1.36604e-05 0 
-34.2509 22.7209 -319.305 1.12978 -0.942383 7.59762 8.09378 -8.08075 1.89078 1.39397 6.96934 -0.493494 -1.49012e-06 -47.0215 4.76837e-05 -4.43552 -1.22937 -0.0953543 1.49012e-06 -40.9079 -9.53674e-05 5.33728 -15.939 4.43768 -8.0384 -7.45263 1.87573 -6.00323 4.15649 0.220413 -8.801e-06 -47.9921 0 4.79552 3.76151 -0.315335 9.68575e-06 -39.6849 0 -4.069 -10.5778 -3.06712 -2.98023e-06 6.39211 -6.39205 0.474304 -4.26502 -1.20749 -6.51926e-06 37.3278 -2.38419e-05 -33.1705 1.19528e-05 -8.19164 22.7355 0 0 3.65476 -48.4206 6.4197 24.8148 2.38419e-05 -3.57628e-05 0.000181179 -3.36821e-06 -91.6366 24.1597 0 2.98023e-06 5.60848 0.0895856 -16.9992 0.0062 0.0497 0.0339 0 0 0 0 0.0215 0 0 0 0 0 0.022 0 0 0 0 0 0.017 0 0 0 0 -0.0068 0.0873 0.0207 0 0 0 0 0.0267 0 0 0 0 0 0.0213 0 0 0 0 0 0.018 0 0 0 0 -0.0067 0.0922 0.0055 0 0 0 0 0.0266 0 0 0 0 0 0.0228 0 0 0 0 0 0.015 0 0 0 0 -0.0067 0.0925 -0.0113 0 0 0 0 0.0247 0 0 0 0 0 0.0221 0 0 0 0 0 0.018 0 0 0 0 -0.0066 0.0935 -0.0272 0 0 0 0 0.0163 0 0 0 0 0 0.0171 0 0 0 0 0 0.018 0 0 0 0 -6.51926e-06 37.3278 -2.38419e-05 33.9363 -2.40124e-06 9.22965 -20.1971 0 -2.38419e-05 35.6578 9.21933 16.0061 -28.2634 -1.49012e-05 2.38419e-05 -4.33746e-05 1.19528e-05 87.756 -24.6191 -5.96046e-06 -1.19209e-05 21.1872 -0.0803943 6.57994 -0.0062 0.0497 0.0339 45 0 0 0 0.0215 0 0 -45 0 0 0.022 0 0 -45 0 0 0.017 0 0 0 0 0.0068 0.0873 0.0207 45 0 0 0 0.0267 0 80 0 0 0 0.0213 0 90 0 0 0 0.018 0 0 0 0 0.0067 0.0922 0.0055 45 0 0 0 0.0266 0 80 0 0 0 0.0228 0 90 0 0 0 0.015 0 0 0 0 0.0067 0.0925 -0.0113 45 0 0 0 0.0247 0 80 0 0 0 0.0221 0 90 0 0 0 0.018 0 0 0 0 0.0066 0.0935 -0.0272 45 0 0 0 0.0163 0 80 0 0 0 0.0171 0 90 0 0 0 0.018 0 0 0 0 -6.51926e-06 37.3278 -2.38419e-05 -2.77734 14.0563 0.675047 -5.96046e-06 20.3765 -2.38419e-05 9.17807e-06 -7.68396e-06 0 
-34.2509 22.7209 -319.305 1.12978 -0.942383 7.59762 8.09378 -8.08075 1.89078 1.39397 6.96934 -0.493494 -1.49012e-06 -47.0215 4.76837e-05 -4.43552 -1.22937 -0.0953543 1.49012e-06 -40.9079 -9.53674e-05 5.33728 -15.939 4.43768 -8.0384 -7.45263 1.87573 -6.00323 4.15649 0.220413 -8.801e-06 -47.9921 0 4.79552 3.76151 -0.315335 9.68575e-06 -39.6849 0 -4.069 -10.5778 -3.06712 -2.98023e-06 6.39211 -6.39205 0.474304 -4.26502 -1.20749 -6.51926e-06 37.3278 -2.38419e-05 -33.1705 1.19528e-05 -8.19164 22.7355 0 0 3.65476 -48.4206 6.4197 24.8148 2.38419e-05 -3.57628e-05 0.000181179 -3.36821e-06 -91.6366 24.1597 0 2.98023e-06 5.60848 0.0895856 -16.9992 0.0062 0.0497 0.0339 0 0 0 0 0.0215 0 0 0 0 0 0.022 0 0 0 0 0 0.017 0 0 0 0 -0.0068 0.0873 0.0207 0 0 0 0 0.0267 0 0 0 0 0 0.0213 0 0 0 0 0 0.018 0 0 0 0 -0.0067 0.0922 0.0055 0 0 0 0 0.0266 0 0 0 0 0 0.0228 0 0 0 0 0 0.015 0 0 0 0 -0.0067 0.0925 -0.0113 0 0 0 0 0.0247 0 0 0 0 0 0.0221 0 0 0 0 0 0.018 0 0 0 0 -0.0066 0.0935 -0.0272 0 0 0 0 0.0163 0 0 0 0 0 0.0171 0 0 0 0 0 0.018 0 0 0 0 -6.51926e-06 37.3278 -2.38419e-05 33.9363 -2.40124e-06 9.22965 -20.1971 0 -2.38419e-05 35.6578 9.21933 16.0061 -28.2634 -1.49012e-05 2.38419e-05 -4.33746e-05 1.19528e-05 87.756 -24.6191 -5.96046e-06 -1.19209e-05 21.1872 -0.0803943 6.57994 -0.0062 0.0497 0.0339 45 0 0 0 0.0215 0 0 -45 0 0 0.022 0 0 -45 0 0 0.017 0 0 0 0 0.0068 0.0873 0.0207 45 0 0 0 0.0267 0 80 0 0 0 0.0213 0 90 0 0 0 0.018 0 0 0 0 0.0067 0.0922 0.0055 45 0 0 0 0.0266 0 80 0 0 0 0.0228 0 90 0 0 0 0.015 0 0 0 0 0.0067 0.0925 -0.0113 45 0 0 0 0.0247 0 80 0 0 0 0.0221 0 90 0 0 0 0.018 0 0 0 0 0.0066 0.0935 -0.0272 45 0 0 0 0.0163 0 80 0 0 0 0.0171 0 90 0 0 0 0.018 0 0 0 0 -6.51926e-06 37.3278 -2.38419e-05 -2.77734 14.0563 0.675047 -5.96046e-06 20.3765 -2.38419e-05 9.17807e-06 -7.68396e-06 0 
-34.2313 22.7154 -319.277 1.1196 -0.853386 7.4626 8.09172 -8.07606 1.8759 1.3761 6.89504 -0.357335 -2.98023e-06 -47.0695 -2.38419e-05 -4.43491 -1.32951 -0.103106 -1.49012e-06 -40.937 2.38419e-05 5.28578 -16.1115 4.40794 -8.03488 -7.44824 1.89741 -6.00425 4.07482 0.345077 1.15717e-05 -48.0335 0 4.75446 3.69735 -0.307301 4.47035e-06 -39.6311 4.76837e-05 -4.07055 -10.5265 -3.06411 -5.21541e-06 6.39381 -6.39377 0.45302 -4.23321 -1.17683 7.45058e-07 37.3278 2.38419e-05 -33.1818 1.10991e-05 -8.14213 22.6731 1.78814e-05 -4.76837e-05 3.88043 -48.0998 6.69652 25.0733 0 1.19209e-05 -7.1949e-05 -2.15243e-07 -92.4629 24.1696 4.76837e-05 2.98023e-06 5.4427 0.0725273 -16.3326 0.0062 0.0497 0.0339 0 0 0 0 0.0215 0 0 0 0 0 0.022 0 0 0 0 0 0.017 0 0 0 0 -0.0068 0.0873 0.0207 0 0 0 0 0.0267 0 0 0 0 0 0.0213 0 0 0 0 0 0.018 0 0 0 0 -0.0067 0.0922 0.0055 0 0 0 0 0.0266 0 0 0 0 0 0.0228 0 0 0 0 0 0.015 0 0 0 0 -0.0067 0.0925 -0.0113 0 0 0 0 0.0247 0 0 0 0 0 0.0221 0 0 0 0 0 0.018 0 0 0 0 -0.0066 0.0935 -0.0272 0 0 0 0 0.0163 0 0 0 0 0 0.0171 0 0 0 0 0 0.018 0 0 0 0 7.45058e-07 37.3278 2.38419e-05 33.9122 -2.98821e-06 9.13712 -20.2217 -1.78814e-05 -2.38419e-05 35.8145 9.27194 16.0337 -28.2818 1.49012e-05 2.38419e-05 -0.000279643 6.83017e-06 87.9013 -24.6209 5.96046e-06 1.19209e-05 19.7827 -0.0380618 6.84048 -0.0062 0.0497 0.0339 45 0 0 0 0.0215 0 0 -45 0 0 0.022 0 0 -45 0 0 0.017 0 0 0 0 0.0068 0.0873 0.0207 45 0 0 0 0.0267 0 80 0 0 0 0.0213 0 90 0 0 0 0.018 0 0 0 0 0.0067 0.0922 0.0055 45 0 0 0 0.0266 0 80 0 0 0 0.0228 0 90 0 0 0 0.015 0 0 0 0 0.0067 0.0925 -0.0113 45 0 0 0 0.0247 0 80 0 0 0 0.0221 0 90 0 0 0 0.018 0 0 0 0 0.0066 0.0935 -0.0272 45 0 0 0 0.0163 0 80 0 0 0 0.0171 0 90 0 0 0 0.018 0 0 0 0 7.45058e-07 37.3278 2.38419e-05 -2.82296 14.0256 0.684682 -8.28877e-06 20.3495 -4.76837e-05 1.06722e-05 -1.36604e-05 0 
